# xmcd
#
# Track frame offsets: 
#        150
#        14865
#        26733
#        41425
#        53253
#        64901
#        75732
#        87276
#        99287
#        110501
#        124689
#        139075
#        151310
#        163474
#        177656
#        188600
#        204595
#        220798
#        234006
#        248213
#
# Disc length: 3504 seconds
#
# Revision: 1
# Processed by: cddbd v1.5.2PL0 Copyright (c) Steve Scherf et al.
# Submitted via: ExactAudioCopy v0.95a5
#
DISCID=0d0dae14
DTITLE=Frank Sinatra - Everybody Loves Somebody [CD 3)
DYEAR=2005
DGENRE=Jazz, Crooner
TTITLE0=Don Cry Joe
TTITLE1=Bye Bye Baby
TTITLE2=That Lucky Old Sun
TTITLE3=Chattanooga Shoe Shine Boy
TTITLE4=American Beauty Rose
TTITLE5=Should I (Reveal)
TTITLE6=You Do Something To Me
TTITLE7=Lover
TTITLE8=When You're Smiling
TTITLE9=London By Night
TTITLE10=Meet Me At The Copa
TTITLE11=April In Paris
TTITLE12=I Guess I'll Have To Dream The Rest
TTITLE13=Nevertheless (I'm In Love With You)
TTITLE14=I Am Loved
TTITLE15=Hello Young Lovers
TTITLE16=We Kiss In A Shadow
TTITLE17=I'm A Fool To Want You
TTITLE18=Love Me
TTITLE19=Deep Night
EXTD=YEAR: 2005
EXTT0=
EXTT1=
EXTT2=
EXTT3=
EXTT4=
EXTT5=
EXTT6=
EXTT7=
EXTT8=
EXTT9=
EXTT10=
EXTT11=
EXTT12=
EXTT13=
EXTT14=
EXTT15=
EXTT16=
EXTT17=
EXTT18=
EXTT19=
PLAYORDER=
